<svg width="544" height="550" viewBox="0 0 544 550" fill="none" xmlns="http://www.w3.org/2000/svg">
<g filter="url(#filter0_d_32_154)">
<path d="M457.192 186.962H433.226C433.226 185.983 433.226 184.759 433.226 183.291C433.226 81.9793 361.57 0 273.21 0C184.851 0 113.195 81.9793 113.195 183.291C113.195 184.515 113.195 189.409 113.195 189.409H87.2919C71.0724 189.409 58 203.358 58 220.488V471.32C58 488.45 71.0724 502.399 87.2919 502.399H272V536.469C272 540.045 275.645 542.465 278.94 541.078L435.889 474.991C466.633 457.616 486 423.356 486 386.159V218.285C486 201.155 473.412 187.451 457.192 186.962ZM273.21 63.6257C333.973 63.6257 373.674 111.1 373.674 183.291C373.674 184.515 373.674 185.738 373.674 186.962H172.989C172.989 185.738 172.989 184.515 172.989 183.291C172.989 111.1 212.448 63.6257 273.21 63.6257ZM180.493 370.008C166.695 370.008 155.559 358.017 155.559 343.334C155.559 328.651 166.695 316.66 180.493 316.66C194.292 316.66 205.428 328.651 205.428 343.334C205.428 358.017 194.292 370.008 180.493 370.008ZM272 370.008C258.201 370.008 247.066 358.017 247.066 343.334C247.066 328.651 258.201 316.66 272 316.66C285.799 316.66 296.934 328.651 296.934 343.334C296.934 358.017 285.799 370.008 272 370.008ZM363.507 370.008C349.708 370.008 338.572 358.017 338.572 343.334C338.572 328.651 349.708 316.66 363.507 316.66C377.305 316.66 388.441 328.651 388.441 343.334C388.441 358.017 377.305 370.008 363.507 370.008Z" fill="white"/>
</g>
<defs>
<filter id="filter0_d_32_154" x="54" y="0" width="436" height="549.475" filterUnits="userSpaceOnUse" color-interpolation-filters="sRGB">
<feFlood flood-opacity="0" result="BackgroundImageFix"/>
<feColorMatrix in="SourceAlpha" type="matrix" values="0 0 0 0 0 0 0 0 0 0 0 0 0 0 0 0 0 0 127 0" result="hardAlpha"/>
<feOffset dy="4"/>
<feGaussianBlur stdDeviation="2"/>
<feComposite in2="hardAlpha" operator="out"/>
<feColorMatrix type="matrix" values="0 0 0 0 0 0 0 0 0 0 0 0 0 0 0 0 0 0 0.25 0"/>
<feBlend mode="normal" in2="BackgroundImageFix" result="effect1_dropShadow_32_154"/>
<feBlend mode="normal" in="SourceGraphic" in2="effect1_dropShadow_32_154" result="shape"/>
</filter>
</defs>
</svg>
